<?xml version="1.0" standalone="no"?>
<!DOCTYPE svg PUBLIC "-//W3C//DTD SVG 20010904//EN"
 "http://www.w3.org/TR/2001/REC-SVG-20010904/DTD/svg10.dtd">
<svg version="1.0" xmlns="http://www.w3.org/2000/svg"
 width="500.000000pt" height="651.000000pt" viewBox="0 0 500.000000 651.000000"
 preserveAspectRatio="xMidYMid meet">

<g transform="translate(0.000000,651.000000) scale(0.100000,-0.100000)"
fill="#DC2626" stroke="none">
<path d="M2525 5814 c-217 -26 -370 -74 -539 -172 -300 -173 -540 -445 -721
-817 -248 -510 -330 -1119 -230 -1711 68 -402 208 -749 423 -1054 80 -113 277
-316 382 -392 141 -103 307 -185 456 -226 l69 -19 -125 -7 c-354 -21 -623 -75
-693 -140 -39 -36 -45 -75 -17 -98 30 -25 19 -23 -40 7 -27 14 -52 25 -55 25
-3 0 -5 -49 -5 -109 l0 -108 -58 -7 c-78 -9 -270 9 -367 35 -114 30 -222 89
-287 157 -30 31 -59 66 -65 76 -25 46 -33 4 -33 -185 0 -157 3 -196 17 -222
61 -120 202 -202 423 -247 93 -20 126 -21 280 -17 243 8 443 53 571 130 l54
32 3 75 c2 41 6 78 10 82 15 15 219 37 430 48 146 7 276 7 418 0 196 -10 414
-32 434 -45 6 -3 10 -39 10 -79 0 -87 3 -90 112 -141 158 -72 391 -111 622
-102 228 8 416 70 526 173 86 81 90 93 90 313 0 136 -3 192 -12 197 -7 4 -16
0 -22 -11 -6 -11 -36 -46 -66 -78 -42 -46 -75 -69 -145 -102 -49 -23 -120 -50
-156 -59 -91 -21 -281 -38 -350 -30 l-59 7 0 41 c0 22 -3 71 -6 108 l-7 67
-48 -25 c-59 -29 -65 -30 -39 -4 11 11 20 27 20 35 0 29 -61 84 -118 106 -114
43 -346 79 -617 95 -66 5 -111 10 -100 12 56 11 207 67 287 107 529 266 920
886 1033 1643 38 257 38 598 -1 861 -130 885 -647 1579 -1296 1740 -132 33
-289 47 -393 35z m312 -50 c702 -125 1265 -895 1363 -1868 16 -156 7 -574 -15
-711 -90 -559 -310 -1024 -638 -1347 -555 -547 -1315 -542 -1867 13 -561 563
-791 1537 -575 2434 177 735 623 1285 1175 1450 180 54 364 63 557 29z m43
-4374 c350 -17 591 -50 722 -100 65 -24 105 -64 87 -86 -16 -19 -56 -18 -185
6 -110 20 -189 25 -218 14 -14 -5 -16 -28 -16 -145 0 -76 -3 -139 -7 -139 -5
0 -53 7 -108 15 -55 8 -198 19 -317 26 -238 12 -566 1 -753 -26 -55 -8 -103
-15 -107 -15 -5 0 -8 60 -8 133 0 90 -4 137 -12 145 -18 18 -88 15 -233 -10
-126 -21 -185 -20 -185 3 0 6 13 23 28 39 81 80 468 137 1017 148 50 1 182 -3
295 -8z m-2028 -343 c113 -55 186 -74 342 -88 139 -14 281 -2 452 37 189 42
282 101 255 161 -13 28 -5 28 -153 -2 -69 -14 -98 -16 -140 -8 l-53 10 41 2
c22 0 89 10 149 21 60 11 128 20 152 20 l43 0 0 -220 0 -219 -82 -40 c-221
-107 -605 -142 -849 -78 -103 27 -216 79 -269 124 -18 15 -46 48 -62 72 -28
44 -28 47 -28 201 l0 156 54 -52 c37 -36 85 -67 148 -97z m2642 133 c60 -11
128 -21 150 -21 l41 -2 -53 -10 c-42 -8 -71 -6 -140 8 -148 30 -140 30 -153 2
-36 -79 140 -156 439 -193 305 -38 601 32 758 181 l54 51 0 -156 c0 -154 0
-157 -28 -201 -16 -24 -44 -57 -62 -72 -52 -45 -165 -97 -269 -125 -88 -24
-113 -26 -286 -26 -253 0 -416 31 -574 110 l-71 35 0 220 0 219 43 0 c23 0 91
-9 151 -20z m-1839 -64 c52 0 115 7 149 17 62 17 79 15 70 -7 -15 -38 -217
-108 -351 -122 l-63 -7 0 29 c0 16 3 52 6 80 l7 52 46 -21 c36 -17 65 -21 136
-21z m2115 -37 l0 -82 -59 7 c-134 15 -331 85 -345 122 -9 23 6 23 89 3 97
-24 201 -21 266 9 24 11 45 21 47 21 1 1 2 -36 2 -80z"/>
<path d="M2475 5739 c-589 -76 -1099 -614 -1310 -1384 -73 -267 -100 -508 -92
-825 6 -233 19 -350 63 -547 160 -720 586 -1277 1112 -1453 430 -144 885 -30
1245 310 174 165 291 328 412 575 117 238 192 483 237 766 19 123 22 184 22
424 0 241 -3 300 -22 422 -94 601 -346 1097 -712 1405 -287 241 -623 349 -955
307z m361 -45 c246 -50 462 -171 665 -373 63 -64 141 -150 172 -192 317 -429
484 -1006 464 -1609 -10 -303 -48 -521 -137 -792 -205 -622 -613 -1063 -1108
-1195 -86 -23 -117 -26 -267 -27 -143 0 -184 3 -257 22 -358 89 -670 334 -900
704 -402 648 -483 1572 -203 2334 113 308 284 576 497 780 314 300 697 424
1074 348z"/>
<path d="M2666 5623 c-2 -10 -7 -47 -11 -83 -3 -36 -8 -77 -11 -91 -5 -26 -4
-27 63 -33 37 -4 76 -10 86 -12 12 -4 17 0 17 15 0 17 -9 21 -61 27 -60 7 -60
7 -57 38 3 30 5 31 43 28 22 -2 48 -5 58 -8 12 -4 17 0 17 15 0 16 -9 21 -56
26 -49 7 -55 10 -52 29 3 19 8 21 66 19 54 -2 62 -1 62 16 0 15 -11 19 -61 25
-89 9 -97 8 -103 -11z"/>
<path d="M2402 5623 c-29 -4 -33 -8 -28 -26 2 -12 10 -62 17 -111 l12 -88 50
6 c66 9 105 31 113 62 11 44 -2 114 -27 140 -23 24 -48 28 -137 17z m108 -48
c7 -8 15 -34 17 -58 6 -48 -5 -63 -54 -73 -33 -7 -30 -13 -48 104 l-7 42 40 0
c23 0 45 -6 52 -15z"/>
<path d="M2995 5460 c-27 -55 -47 -101 -44 -104 18 -16 134 -66 145 -62 25 10
15 21 -41 49 l-55 27 15 30 16 30 48 -25 c27 -13 51 -21 55 -18 15 15 3 30
-39 51 -47 23 -51 28 -36 52 8 12 17 10 61 -10 38 -18 53 -21 62 -12 15 15 17
13 -68 55 l-71 36 -48 -99z"/>
<path d="M2050 5484 c-25 -14 -46 -27 -48 -29 -2 -1 21 -46 50 -98 l53 -95 40
20 c65 33 85 56 85 101 0 43 -30 101 -60 117 -31 17 -73 11 -120 -16z m96 -22
c47 -32 57 -103 19 -128 -34 -22 -45 -15 -80 51 -29 55 -30 57 -11 71 21 15
55 18 72 6z"/>
<path d="M3207 5345 c-37 -46 -67 -86 -67 -88 0 -2 28 -25 61 -51 48 -37 64
-45 70 -34 7 9 -3 24 -32 50 l-42 36 53 72 c46 63 51 73 38 86 -13 13 -23 4
-81 -71z"/>
<path d="M1844 5336 c-17 -13 -16 -19 21 -122 21 -60 40 -111 42 -113 2 -3 10
2 19 10 11 12 12 22 5 41 -8 21 -5 28 26 52 31 25 38 27 61 17 20 -10 28 -9
41 3 8 9 13 17 10 20 -2 2 -50 26 -105 54 -88 44 -104 49 -120 38z m76 -61
c33 -17 36 -25 18 -43 -17 -17 -35 -15 -41 6 -2 9 -8 25 -12 35 -9 21 -2 21
35 2z"/>
<path d="M2470 5325 c-178 -35 -328 -122 -486 -279 -154 -155 -255 -313 -347
-541 -102 -255 -152 -501 -164 -810 -32 -869 380 -1647 952 -1795 88 -23 252
-28 340 -11 247 48 486 223 659 484 320 481 425 1157 280 1805 -118 526 -432
966 -788 1103 -148 57 -304 73 -446 44z m280 -29 c258 -47 497 -227 674 -510
378 -602 419 -1516 97 -2181 -83 -170 -168 -293 -286 -411 -200 -201 -380
-283 -621 -284 -517 -1 -965 546 -1086 1325 -25 167 -31 531 -10 680 67 478
232 855 487 1110 225 225 482 318 745 271z"/>
<path d="M2550 4978 c-84 -32 -179 -135 -254 -274 -55 -102 -106 -182 -211
-332 -24 -34 -52 -85 -62 -113 -15 -41 -25 -53 -53 -65 -56 -24 -99 -73 -116
-132 -28 -95 0 -179 76 -230 30 -20 37 -33 52 -94 16 -66 16 -84 3 -222 l-14
-151 26 -23 c21 -19 33 -22 61 -17 l35 6 -7 -40 c-5 -33 -3 -41 12 -45 11 -4
18 -15 18 -29 -1 -16 8 -26 32 -36 29 -13 32 -18 32 -60 0 -59 16 -90 60 -115
30 -18 51 -21 162 -21 l127 1 -6 -31 c-33 -195 -78 -284 -192 -380 -93 -79
-121 -120 -121 -180 0 -128 180 -208 470 -209 132 0 152 2 223 27 98 34 141
62 200 127 112 124 197 308 197 426 0 86 -20 135 -100 239 -69 90 -92 136
-103 206 l-5 37 86 4 c69 4 98 10 140 32 144 73 216 225 163 342 -25 56 -81
98 -163 125 l-70 22 4 59 c4 49 17 84 79 205 68 134 74 151 77 217 4 74 -22
170 -53 196 -10 9 -11 18 -3 41 26 75 -62 209 -194 294 -128 82 -308 184 -354
200 -65 22 -187 19 -254 -7z m257 -38 c25 -11 84 -44 132 -73 47 -30 120 -74
161 -97 93 -54 165 -120 195 -180 21 -41 22 -51 12 -93 -10 -44 -9 -48 16 -67
59 -47 74 -178 29 -266 -27 -53 -91 -110 -139 -124 -43 -13 -109 -10 -106 5 1
6 3 36 4 68 l3 59 -55 19 c-77 26 -109 24 -149 -11 -43 -36 -46 -36 -55 -2 -3
15 -34 69 -68 121 l-62 94 -3 173 c-2 117 -7 176 -15 182 -17 14 -13 -338 4
-370 6 -13 34 -53 60 -89 54 -73 79 -125 79 -164 0 -29 -15 -32 -63 -11 -43
17 -81 63 -102 123 -37 104 -76 173 -106 188 -16 9 -29 13 -29 9 0 -4 19 -36
41 -72 93 -147 111 -223 63 -261 -32 -25 -114 -51 -161 -51 -47 0 -110 35
-134 73 -48 79 -48 160 2 209 23 24 36 29 66 26 45 -4 54 -28 28 -77 -18 -36
-5 -42 33 -15 30 21 29 68 -3 99 -19 19 -35 25 -71 25 -39 0 -51 -5 -75 -31
-52 -56 -64 -156 -26 -224 13 -23 43 -52 71 -70 45 -27 58 -30 132 -30 75 0
85 2 125 31 72 50 75 51 53 13 -72 -125 -345 -98 -424 42 -18 34 -22 51 -17
93 l5 52 -56 -28 c-67 -32 -162 -47 -162 -26 1 29 41 98 118 200 44 59 99 142
123 185 127 233 206 321 322 359 54 18 144 10 204 -16z m-534 -874 c42 -54
124 -89 223 -94 71 -4 86 -8 105 -28 21 -22 22 -28 11 -57 -32 -88 12 -157 99
-157 43 0 28 16 -21 23 -54 7 -70 22 -70 66 0 30 8 45 45 81 42 42 44 45 30
67 -21 31 -19 41 14 78 16 18 31 39 33 45 3 9 17 8 54 -6 l51 -18 -29 -24
c-42 -36 -60 -75 -48 -106 5 -14 14 -26 18 -26 5 0 1 -18 -10 -40 -17 -34 -18
-44 -8 -75 12 -36 43 -65 70 -65 11 0 16 -11 16 -41 2 -52 28 -88 84 -116 55
-29 129 -30 188 -3 23 10 42 21 42 23 0 3 -19 -2 -42 -10 -56 -19 -137 -11
-184 18 -37 23 -73 85 -74 127 0 13 -6 22 -15 22 -28 0 -65 50 -65 86 0 45 35
69 85 60 26 -5 39 -14 46 -33 8 -20 14 -24 32 -18 36 12 159 16 207 8 38 -7
45 -13 48 -33 2 -14 8 -39 13 -56 9 -28 15 -32 55 -38 63 -8 140 -52 166 -94
31 -50 29 -132 -5 -198 -86 -168 -312 -215 -453 -93 -51 44 -67 45 -39 2 22
-34 51 -58 86 -73 23 -10 28 -21 38 -81 13 -80 43 -146 96 -209 20 -24 32 -46
28 -50 -4 -3 -37 -12 -73 -19 -106 -21 -219 -60 -325 -112 -104 -51 -133 -71
-259 -177 -41 -34 -113 -85 -158 -112 -64 -37 -89 -58 -107 -90 -26 -47 -36
-46 -27 2 8 42 24 60 113 131 40 31 87 78 104 104 38 54 72 156 90 267 12 77
13 79 58 110 25 17 61 45 80 62 34 30 31 30 -61 -16 -133 -65 -248 -85 -338
-60 -63 17 -74 32 -80 101 -5 59 -7 63 -35 72 -65 21 -46 57 34 65 80 7 60 24
-24 20 l-75 -3 0 30 c0 23 7 34 30 47 17 9 30 25 30 34 0 16 -1 16 -12 2 -19
-22 -128 -50 -145 -37 -16 14 -16 59 1 219 12 107 11 130 -1 159 -18 46 -26
160 -16 240 l8 65 28 -42 c52 -80 153 -130 292 -147 52 -7 66 -13 106 -50 25
-23 55 -47 66 -54 12 -6 33 -37 48 -68 42 -92 71 -122 151 -159 53 -25 87 -34
124 -34 43 0 51 -3 48 -17 -2 -10 -21 -27 -42 -39 -34 -19 -36 -23 -20 -32 28
-15 65 7 84 52 l18 39 69 -71 c72 -73 110 -92 184 -92 52 0 122 27 153 59 l28
29 -58 -29 c-44 -23 -70 -29 -118 -29 -86 1 -133 25 -189 98 -48 62 -69 74
-102 61 -104 -40 -266 48 -309 169 -14 40 -31 63 -75 99 -31 26 -58 49 -60 50
-2 2 -1 6 3 10 16 16 98 -42 149 -105 53 -65 118 -113 153 -111 13 0 8 6 -16
17 -53 26 -71 41 -129 112 -70 86 -84 96 -163 120 -37 11 -80 32 -97 45 -16
14 -52 29 -79 35 -28 5 -67 16 -88 25 -48 20 -54 19 -26 -5 12 -10 56 -26 98
-35 41 -10 84 -25 97 -35 21 -17 21 -19 4 -26 -30 -11 -145 13 -193 41 -73 43
-131 137 -107 174 15 22 42 15 80 -22 37 -35 48 -33 30 3 -14 28 -45 45 -97
55 -32 6 -40 2 -80 -35 -29 -26 -35 -35 -17 -24 45 27 44 7 -3 -41 -24 -25
-41 -47 -37 -51 3 -4 18 8 32 25 39 45 49 40 41 -21 -11 -90 -18 -118 -27
-118 -5 0 -26 15 -47 34 -35 33 -37 37 -37 100 0 60 2 67 34 100 51 52 114 79
186 78 33 0 74 5 90 12 l30 13 16 -48 c9 -26 28 -64 42 -83z m791 94 c32 -12
35 -55 6 -117 l-19 -43 73 0 c40 0 94 6 119 14 l46 14 -30 -52 c-16 -29 -29
-59 -29 -67 -1 -37 -13 -41 -103 -28 -63 9 -97 9 -129 1 -27 -7 -44 -8 -46 -1
-9 23 -36 38 -80 44 -93 13 -95 15 -57 66 54 74 65 95 65 125 0 22 6 34 23 42
28 14 128 15 161 2z m-396 -182 c17 -17 15 -47 -3 -54 -15 -6 -67 45 -58 58 7
12 48 9 61 -4z m572 -1110 c31 -50 27 -65 -16 -64 -22 1 -39 -4 -41 -11 -3 -9
9 -13 42 -13 39 0 46 -3 41 -16 -3 -9 -6 -20 -6 -25 0 -6 -5 -7 -10 -4 -6 3
-30 3 -54 0 -34 -6 -43 -11 -39 -22 5 -12 17 -14 54 -10 l48 6 -10 -27 c-8
-23 -15 -28 -47 -28 -45 -2 -82 -19 -82 -39 0 -17 27 -19 66 -5 36 14 40 7 20
-38 -15 -33 -21 -37 -56 -38 -60 -2 -129 -62 -87 -77 6 -2 29 2 50 11 21 8 40
12 42 10 3 -2 -8 -25 -24 -49 -18 -30 -40 -50 -62 -58 -55 -20 -82 -35 -87
-48 -2 -8 5 -13 18 -13 19 0 21 -2 9 -16 -7 -8 -30 -24 -51 -35 -38 -19 -38
-19 -38 1 0 30 -39 25 -80 -10 -28 -23 -45 -29 -84 -30 l-48 0 31 29 c19 17
29 35 25 44 -8 22 -37 10 -80 -34 -33 -34 -44 -39 -84 -39 l-45 1 38 33 c27
23 38 39 35 54 l-3 22 -33 -20 c-18 -11 -41 -34 -50 -50 -12 -21 -25 -30 -43
-30 -39 0 -41 10 -9 47 32 36 38 53 18 53 -18 -1 -42 -20 -63 -53 -13 -21 -23
-26 -39 -21 -30 9 -31 11 -12 39 26 39 14 54 -18 22 -30 -30 -43 -33 -68 -13
-22 16 -23 32 -3 40 8 3 15 12 15 21 0 19 -9 19 -32 -2 -30 -27 -33 -6 -5 36
17 25 55 57 109 89 46 28 117 81 158 118 170 151 379 256 565 283 100 14 104
14 125 -21z"/>
<path d="M2415 3925 c17 -8 39 -14 50 -14 13 0 8 5 -15 14 -46 18 -74 17 -35
0z"/>
<path d="M2514 3889 c14 -11 32 -19 39 -16 6 2 -2 11 -20 20 -43 23 -51 21
-19 -4z"/>
<path d="M2123 3748 c-31 -15 -29 -38 3 -38 21 0 25 -4 21 -20 -3 -11 -1 -20
4 -20 5 0 9 -6 9 -14 0 -7 7 -19 15 -26 8 -7 13 -15 11 -19 -2 -3 4 -14 14
-24 17 -17 18 -17 22 12 4 25 1 31 -16 33 -12 2 -22 11 -24 21 -3 14 4 17 35
19 l38 1 -45 6 c-47 6 -61 24 -24 29 28 4 102 -26 89 -36 -11 -8 -18 -32 -9
-32 3 0 14 5 25 11 20 10 20 12 3 30 -19 21 -73 39 -117 39 -16 0 -26 4 -22
10 3 6 41 11 83 11 57 1 69 3 47 9 -45 11 -137 10 -162 -2z"/>
<path d="M3301 3587 c-1 -39 -27 -73 -92 -119 l-24 -17 34 9 c65 18 101 76 88
141 -3 16 -5 11 -6 -14z"/>
<path d="M3347 3538 c-10 -49 -42 -84 -92 -102 l-40 -15 36 0 c22 -1 46 7 62
19 28 23 50 77 45 112 -3 18 -5 14 -11 -14z"/>
<path d="M3083 2863 c-21 -8 -15 -23 10 -23 33 0 67 11 67 21 0 9 -56 11 -77
2z"/>
<path d="M2915 2810 l-30 -20 32 0 c35 0 83 18 83 32 0 15 -55 8 -85 -12z"/>
<path d="M3051 2777 c-26 -13 -30 -30 -8 -35 23 -5 89 26 82 38 -8 14 -45 12
-74 -3z"/>
<path d="M2775 2746 c-29 -13 -86 -66 -71 -66 30 0 116 53 116 72 0 11 -9 10
-45 -6z"/>
<path d="M2885 2711 c-47 -21 -77 -51 -51 -51 29 0 96 32 107 51 13 25 -3 25
-56 0z"/>
<path d="M2996 2669 c-52 -41 -21 -52 52 -19 23 10 42 24 42 30 0 18 -66 11
-94 -11z"/>
<path d="M2595 2621 c-31 -18 -73 -71 -57 -71 16 0 75 44 90 68 18 27 7 28
-33 3z"/>
<path d="M2718 2615 c-48 -27 -78 -55 -78 -72 0 -18 66 15 99 50 33 36 23 47
-21 22z"/>
<path d="M2835 2590 c-39 -20 -75 -53 -75 -71 0 -15 84 21 112 48 48 46 32 56
-37 23z"/>
<path d="M2985 2575 c-22 -8 -48 -25 -59 -37 -18 -23 -18 -23 9 -26 35 -4 82
15 100 42 28 40 17 45 -50 21z"/>
<path d="M2445 2491 c-37 -22 -70 -59 -62 -67 9 -9 76 35 88 58 15 28 8 30
-26 9z"/>
<path d="M2505 2447 c-53 -51 -60 -77 -14 -50 29 17 79 71 79 86 0 17 -23 4
-65 -36z"/>
<path d="M2647 2461 c-74 -47 -96 -109 -25 -69 38 21 87 82 76 93 -2 3 -25 -8
-51 -24z"/>
<path d="M2779 2454 c-42 -24 -78 -69 -65 -82 18 -18 126 58 126 89 0 24 -5
24 -61 -7z"/>
<path d="M2887 2409 c-36 -19 -67 -62 -54 -75 20 -21 137 54 137 87 0 15 -43
9 -83 -12z"/>
<path d="M3470 5170 c-25 -25 -25 -27 0 -90 22 -55 20 -70 -10 -70 -28 0 -54
43 -41 68 8 15 7 23 -5 33 -23 19 -47 -15 -39 -56 13 -69 99 -111 138 -67 21
23 21 49 2 95 -19 45 -19 67 -2 67 22 0 50 -37 43 -56 -9 -24 13 -48 30 -33
23 19 16 56 -17 94 -36 40 -69 45 -99 15z"/>
<path d="M1699 5173 c-9 -2 -35 -26 -58 -53 l-41 -49 77 -62 c43 -34 83 -66
89 -70 18 -14 84 83 84 123 0 42 -33 82 -85 104 -35 14 -38 15 -66 7z m91 -80
c29 -32 29 -35 15 -63 -8 -16 -19 -32 -25 -35 -6 -4 -34 13 -63 36 -28 24 -53
44 -55 45 -2 1 4 14 13 28 29 45 70 41 115 -11z"/>
<path d="M1549 4994 c-15 -18 -16 -17 90 -87 77 -51 86 -55 97 -39 15 21 19
17 -88 86 -75 48 -88 53 -99 40z"/>
<path d="M3578 4941 c-47 -9 -90 -19 -94 -23 -13 -14 16 -35 40 -31 19 4 29
-3 50 -33 23 -35 24 -39 10 -55 -17 -19 -15 -54 3 -54 11 0 43 39 113 137 27
40 31 50 20 63 -15 18 -29 18 -142 -4z m92 -26 c0 -3 -10 -19 -22 -35 -22 -31
-32 -31 -48 0 -9 17 -6 21 22 29 41 12 48 12 48 6z"/>
<path d="M1477 4872 c-9 -10 -22 -33 -28 -50 -9 -26 -8 -37 5 -57 24 -37 67
-33 115 10 43 39 56 43 65 19 9 -23 -20 -64 -44 -64 -11 0 -24 -9 -29 -19 -9
-15 -7 -20 10 -24 38 -10 69 11 91 59 24 54 15 88 -28 104 -30 12 -54 2 -102
-43 -24 -24 -35 -28 -44 -19 -16 16 6 62 31 62 16 0 31 18 31 36 0 13 -59 1
-73 -14z"/>
<path d="M3698 4748 c-49 -23 -88 -47 -88 -55 0 -7 13 -40 30 -73 21 -42 34
-58 45 -54 19 8 19 6 -10 63 l-24 49 82 37 c97 44 89 38 81 59 -8 22 -16 20
-116 -26z"/>
<path d="M1396 4679 c-18 -11 -66 -107 -66 -132 0 -15 186 -91 200 -82 21 13
8 33 -30 49 -35 14 -39 19 -30 35 6 13 29 24 64 31 42 8 55 16 60 33 3 11 4
22 2 24 -1 2 -26 -3 -54 -11 -44 -11 -52 -11 -52 1 0 18 -45 63 -62 63 -7 0
-21 -5 -32 -11z m50 -54 c3 -8 1 -30 -6 -49 -10 -33 -13 -34 -36 -24 -21 10
-24 17 -19 37 12 47 49 69 61 36z"/>
<path d="M3785 4570 c-58 -49 -80 -75 -80 -92 0 -23 2 -23 118 -26 109 -2 118
-1 115 15 -3 15 -17 19 -91 23 l-88 5 48 37 c67 51 85 72 77 92 -3 9 -9 16
-13 15 -3 0 -42 -31 -86 -69z"/>
<path d="M1280 4401 c-11 -37 -20 -73 -20 -79 0 -6 33 -21 73 -32 39 -12 85
-25 101 -31 16 -5 31 -7 33 -5 9 9 43 142 38 154 -10 27 -26 9 -42 -48 -14
-53 -19 -60 -37 -54 -35 11 -39 20 -23 72 13 47 13 51 -3 55 -14 4 -21 -6 -33
-47 -12 -44 -17 -51 -37 -48 -13 1 -25 4 -27 5 -1 2 4 25 13 52 8 27 12 55 10
62 -11 28 -26 10 -46 -56z"/>
<path d="M3738 4369 c6 -15 19 -25 35 -27 22 -3 29 -11 38 -45 10 -37 9 -43
-10 -58 -22 -18 -28 -44 -12 -53 6 -4 127 79 190 131 2 1 -1 14 -6 26 -10 21
-20 25 -90 31 -43 4 -95 10 -116 13 -36 5 -37 5 -29 -18z m179 -44 c2 -1 -11
-12 -28 -24 -33 -25 -49 -18 -49 22 0 15 6 17 38 11 20 -4 38 -8 39 -9z"/>
<path d="M1237 4240 c-4 -16 9 -27 70 -62 83 -48 83 -49 -35 -63 -50 -6 -61
-10 -66 -28 -3 -12 -4 -22 -3 -23 3 -2 184 24 215 31 15 4 22 13 22 29 0 19
-18 34 -95 80 -52 31 -97 56 -99 56 -2 0 -6 -9 -9 -20z"/>
<path d="M3886 4162 l-88 -16 7 -50 c7 -57 27 -101 50 -110 30 -11 95 -6 125
9 44 23 53 48 45 121 -8 74 2 71 -139 46z m104 -71 c0 -47 -13 -59 -71 -67
-51 -7 -65 3 -75 54 -6 30 -6 30 47 40 97 17 99 17 99 -27z"/>
<path d="M1196 4004 c-4 -9 -5 -18 -4 -20 2 -1 51 -9 108 -17 78 -11 107 -12
112 -3 15 23 -1 31 -83 43 -115 16 -126 15 -133 -3z"/>
<path d="M3869 3901 c-23 -24 -29 -38 -29 -75 0 -65 30 -97 96 -103 62 -5 94
11 117 59 15 31 16 44 7 77 -14 53 -42 71 -108 71 -46 0 -58 -4 -83 -29z m141
-31 c45 -45 11 -102 -61 -104 -32 0 -45 5 -60 23 -25 31 -24 47 6 76 31 32 86
34 115 5z"/>
<path d="M1180 3899 c0 -19 24 -26 105 -31 l40 -3 -77 -43 c-55 -31 -78 -49
-78 -63 0 -14 7 -19 28 -20 15 0 64 -4 110 -7 79 -7 83 -7 80 13 -3 17 -12 20
-65 23 -35 2 -63 6 -63 11 0 4 32 22 70 41 56 27 70 38 70 56 0 20 -6 23 -67
28 -161 15 -153 15 -153 -5z"/>
<path d="M1170 3646 c0 -25 2 -25 44 -20 25 4 65 3 90 0 38 -6 47 -12 52 -32
10 -41 -13 -55 -105 -61 -72 -5 -81 -8 -81 -25 0 -19 6 -20 89 -16 110 4 131
18 131 88 0 75 -13 84 -124 88 l-96 4 0 -26z"/>
<path d="M3850 3650 c0 -17 7 -20 45 -20 41 0 45 -2 45 -24 0 -18 -12 -32 -45
-53 -36 -22 -45 -34 -45 -56 l0 -29 50 36 c28 20 50 32 50 27 0 -19 32 -41 59
-41 46 0 61 27 61 108 l0 72 -110 0 c-103 0 -110 -1 -110 -20z m185 -67 c-8
-45 -18 -58 -39 -50 -11 4 -16 19 -16 47 0 38 1 40 31 40 31 0 31 -1 24 -37z"/>
<path d="M1260 3256 c0 -45 6 -91 15 -112 14 -34 14 -37 -7 -53 -28 -23 -18
-55 15 -49 21 4 22 1 23 -66 1 -53 7 -84 24 -120 20 -41 25 -46 31 -30 14 36
9 114 -11 166 -11 29 -20 54 -20 54 0 1 9 4 20 7 12 3 20 14 20 26 0 20 -9 25
-37 22 -9 -1 -13 16 -13 57 0 63 -23 143 -46 163 -12 10 -14 0 -14 -65z"/>
<path d="M3965 3279 c-18 -40 -25 -71 -25 -117 0 -44 -4 -62 -12 -61 -29 3
-38 -2 -38 -22 0 -13 8 -23 21 -26 14 -4 18 -10 13 -22 -24 -55 -37 -130 -30
-176 7 -46 9 -48 22 -30 22 30 44 113 44 167 0 42 3 48 20 48 31 0 37 30 12
51 -21 16 -21 19 -6 55 15 36 22 169 10 181 -3 3 -17 -18 -31 -48z"/>
<path d="M1463 2590 c-39 -23 -53 -48 -53 -94 0 -44 33 -84 78 -92 29 -6 32
-4 32 20 0 20 -5 26 -23 26 -31 0 -47 18 -47 52 0 33 48 68 92 68 38 0 67 -43
49 -72 -9 -15 -9 -23 0 -34 17 -21 25 -17 38 14 15 37 6 74 -26 107 -32 31
-93 34 -140 5z"/>
<path d="M3629 2578 c-9 -16 1 -31 66 -104 42 -46 80 -84 85 -84 16 0 20 34 5
50 -19 21 -19 33 0 70 12 23 23 30 44 30 29 0 50 26 34 40 -4 4 -56 10 -116
13 -99 4 -108 3 -118 -15z m131 -35 c-1 -5 -6 -18 -13 -31 l-13 -22 -29 30
-29 30 42 0 c23 0 42 -3 42 -7z"/>
<path d="M1595 2379 c-44 -28 -84 -55 -89 -60 -12 -10 72 -139 90 -139 21 0
17 21 -16 70 l-30 45 23 17 c12 10 24 18 27 18 3 0 17 -20 32 -45 15 -25 32
-45 37 -45 22 0 20 21 -4 59 -30 48 -31 57 -6 70 16 9 23 3 49 -39 30 -49 45
-59 57 -41 5 10 -72 141 -84 141 -3 0 -42 -23 -86 -51z"/>
<path d="M3541 2409 c-49 -46 -50 -102 -3 -152 68 -72 174 -47 188 44 7 45
-16 80 -40 60 -12 -10 -13 -18 -5 -32 14 -26 2 -58 -24 -68 -46 -17 -122 36
-115 80 2 14 15 30 33 39 52 26 60 50 17 50 -16 0 -38 -9 -51 -21z"/>
<path d="M3426 2244 c-4 -9 -5 -18 -4 -19 2 -1 40 -30 86 -65 74 -57 85 -62
98 -48 14 14 7 22 -70 82 -46 36 -89 66 -94 66 -6 0 -13 -7 -16 -16z"/>
<path d="M1709 2182 c-64 -56 -74 -69 -66 -84 10 -15 17 -12 64 28 29 25 53
40 53 33 0 -7 -10 -43 -22 -81 -20 -61 -20 -70 -7 -83 14 -14 24 -8 97 55 54
47 79 75 76 85 -9 22 -17 19 -68 -26 -26 -23 -49 -39 -53 -36 -3 3 6 39 20 80
18 55 22 78 14 86 -18 18 -29 13 -108 -57z"/>
<path d="M3321 2124 c-28 -25 -51 -52 -51 -59 0 -6 36 -44 79 -83 68 -62 81
-70 91 -56 11 12 8 20 -19 48 -28 28 -30 35 -17 45 10 9 32 10 71 6 38 -5 60
-4 70 5 23 19 10 28 -48 35 -53 7 -53 7 -49 40 3 25 -1 36 -19 49 -36 25 -52
20 -108 -30z m93 -20 c3 -8 -7 -28 -22 -44 l-27 -30 -25 20 -25 20 32 30 c33
30 57 31 67 4z"/>
<path d="M1924 2078 c-4 -6 2 -19 14 -29 12 -9 22 -20 22 -24 0 -5 -25 -37
-56 -72 -52 -58 -55 -66 -41 -80 16 -17 18 -15 102 85 30 36 41 39 66 16 17
-15 39 -12 39 5 0 10 -119 111 -130 111 -5 0 -12 -5 -16 -12z"/>
<path d="M3162 1984 c-34 -25 -62 -48 -62 -51 0 -8 121 -173 126 -173 3 0 34
20 69 46 43 30 62 50 58 60 -7 19 -9 19 -65 -22 -47 -33 -51 -34 -64 -17 -21
28 -17 38 26 68 22 15 40 31 40 36 0 22 -26 18 -64 -9 -32 -24 -46 -28 -54
-20 -21 21 -13 36 33 69 35 25 42 35 34 46 -6 7 -12 13 -13 13 -1 0 -30 -21
-64 -46z"/>
<path d="M2082 1928 c-11 -18 -35 -61 -53 -96 -29 -52 -32 -64 -19 -72 18 -11
34 1 50 40 10 24 15 28 30 20 13 -7 21 -27 26 -67 6 -54 16 -72 37 -73 5 0 7
25 5 55 -3 54 -3 55 24 55 18 0 33 8 44 25 27 41 12 70 -57 110 -33 19 -62 35
-64 35 -2 0 -12 -15 -23 -32z m106 -75 c4 -28 -18 -34 -56 -16 -35 17 -38 24
-21 54 10 20 11 20 42 2 18 -11 33 -28 35 -40z"/>
<path d="M3007 1888 c-14 -11 -15 -22 -7 -82 6 -38 9 -71 7 -72 -2 -2 -23 23
-47 56 -24 33 -45 60 -46 60 -12 0 -54 -25 -54 -32 0 -13 72 -188 79 -192 4
-3 13 -1 21 4 11 7 7 23 -18 84 -17 42 -30 76 -28 76 1 0 24 -29 50 -65 42
-58 71 -77 88 -60 2 3 -1 41 -7 85 -13 89 -9 91 24 10 28 -67 37 -78 52 -63 9
9 2 36 -27 107 -40 98 -52 110 -87 84z"/>
<path d="M2334 1830 c-53 -21 -87 -105 -64 -161 24 -58 124 -80 169 -38 69 65
49 175 -37 199 -43 11 -40 11 -68 0z m87 -51 c26 -26 21 -80 -12 -115 -26 -28
-46 -30 -77 -8 -47 33 -14 144 44 144 13 0 34 -10 45 -21z"/>
<path d="M2705 1800 c-16 -6 -27 -31 -48 -115 -16 -59 -25 -110 -22 -113 10
-11 40 14 43 37 2 12 11 21 21 21 10 0 32 3 48 6 24 5 31 2 41 -20 11 -25 52
-38 52 -16 0 12 -99 198 -108 204 -4 2 -16 0 -27 -4z m30 -80 c21 -40 19 -50
-10 -50 -14 0 -25 4 -25 9 0 16 12 71 16 71 2 0 10 -13 19 -30z"/>
<path d="M2413 1303 c-20 -4 -23 -11 -23 -49 0 -46 4 -49 50 -34 23 8 23 8 -8
9 -39 1 -39 22 -1 32 24 7 24 7 -3 8 -35 1 -37 21 -3 21 14 0 25 5 25 10 0 6
-3 9 -7 9 -5 -1 -18 -4 -30 -6z"/>
<path d="M2510 1265 c0 -25 5 -45 10 -45 6 0 10 9 10 19 0 11 8 22 18 24 16 4
16 5 0 6 -26 2 -22 29 5 34 16 3 13 5 -10 6 -33 1 -33 0 -33 -44z"/>
<path d="M2590 1265 l0 -45 38 1 c35 1 35 2 8 8 -40 8 -46 31 -9 32 26 1 26 1
5 7 -13 4 -23 12 -23 17 0 6 10 13 23 17 20 5 18 6 -9 7 -32 1 -33 0 -33 -44z"/>
<path d="M2670 1266 c0 -46 0 -46 35 -46 40 0 48 12 37 55 -7 24 -14 31 -40
33 -32 3 -32 3 -32 -42z m53 19 c1 -5 -6 -11 -15 -13 -11 -2 -18 3 -18 13 0
17 30 18 33 0z m7 -40 c0 -8 -9 -15 -20 -15 -11 0 -20 7 -20 15 0 8 9 15 20
15 11 0 20 -7 20 -15z"/>
<path d="M2771 1263 c1 -27 3 -40 6 -30 6 23 25 22 41 -4 17 -27 27 -18 12 10
-7 14 -7 21 0 21 20 0 10 38 -12 44 -44 11 -48 8 -47 -41z m49 17 c0 -5 -9
-10 -20 -10 -11 0 -20 5 -20 10 0 6 9 10 20 10 11 0 20 -4 20 -10z"/>
<path d="M2297 1293 c-4 -3 -7 -24 -7 -45 0 -35 2 -38 28 -38 33 0 52 16 52
45 0 12 -5 26 -12 33 -13 13 -50 16 -61 5z m48 -39 c0 -19 -6 -30 -17 -32 -14
-3 -18 3 -18 26 0 16 3 32 7 36 14 13 28 -1 28 -30z"/>
<path d="M2860 1255 l0 -45 38 1 c30 2 32 3 10 6 -34 5 -37 30 -5 36 l22 4
-22 2 c-33 2 -29 29 5 34 22 3 20 4 -10 6 l-38 1 0 -45z"/>
<path d="M2951 1251 c1 -25 3 -38 6 -28 6 23 19 22 37 -5 9 -12 19 -19 22 -15
4 4 1 14 -6 23 -11 13 -11 17 0 24 21 13 4 37 -29 42 -31 5 -31 4 -30 -41z
m49 21 c0 -14 -11 -21 -26 -15 -21 8 -17 23 6 23 11 0 20 -4 20 -8z"/>
<path d="M2190 1266 c-13 -36 -2 -68 24 -64 28 4 31 54 3 52 -10 -1 -16 3 -14
10 2 6 12 10 22 8 10 -2 14 1 10 7 -11 19 -35 12 -45 -13z m35 -46 c-5 -8 -11
-8 -17 -2 -6 6 -7 16 -3 22 5 8 11 8 17 2 6 -6 7 -16 3 -22z"/>
<path d="M3058 1279 c-28 -16 -23 -67 7 -81 19 -8 28 -8 40 2 36 30 -8 102
-47 79z m40 -42 c3 -21 -1 -27 -17 -27 -21 0 -37 32 -26 50 12 20 40 5 43 -23z"/>
<path d="M2130 1265 c-8 -9 -8 -15 -2 -15 6 0 13 -15 15 -32 3 -25 4 -22 5 15
2 51 1 54 -18 32z"/>
<path d="M2604 1139 c-13 -14 -14 -20 -4 -17 9 2 16 -8 21 -27 6 -26 7 -23 8
18 0 26 -1 47 -2 47 -2 0 -12 -9 -23 -21z"/>
<path d="M2380 1104 c0 -43 1 -45 26 -42 34 4 49 27 40 61 -5 22 -12 27 -36
27 -29 0 -30 -2 -30 -46z m45 0 c0 -19 -5 -29 -15 -29 -16 0 -25 28 -16 51 10
25 31 10 31 -22z"/>
<path d="M2470 1105 c0 -43 1 -45 29 -45 17 0 33 5 36 10 4 6 -5 10 -19 10
-32 0 -34 15 -3 25 l22 8 -22 4 c-32 6 -29 21 5 26 22 3 20 4 -10 6 l-38 1 0
-45z"/>
<path d="M2667 1143 c-2 -5 -4 -22 -5 -39 -2 -36 23 -54 44 -32 18 20 6 78
-17 78 -10 0 -20 -3 -22 -7z m33 -13 c0 -5 -4 -10 -10 -10 -5 0 -10 5 -10 10
0 6 5 10 10 10 6 0 10 -4 10 -10z m-3 -46 c-9 -9 -28 6 -21 18 4 6 10 6 17 -1
6 -6 8 -13 4 -17z"/>
<path d="M2746 1125 c-21 -32 -20 -45 4 -45 11 0 20 -6 20 -12 0 -10 2 -10 8
-1 10 15 3 83 -8 83 -4 0 -15 -11 -24 -25z m24 -14 c0 -6 -4 -13 -10 -16 -5
-3 -10 1 -10 9 0 9 5 16 10 16 6 0 10 -4 10 -9z"/>
<path d="M2820 1135 c-9 -10 -9 -15 -1 -15 6 0 11 -13 11 -30 0 -16 5 -30 10
-30 6 0 10 20 10 45 0 47 -9 56 -30 30z"/>
<path d="M810 991 c0 -27 5 -53 10 -56 6 -3 10 3 10 14 0 12 3 21 8 21 15 -1
50 -36 54 -54 1 -11 9 -21 16 -24 10 -3 12 8 10 44 -2 27 -8 49 -15 52 -7 2
-13 -3 -13 -12 0 -20 -10 -20 -38 0 -12 8 -22 24 -22 34 0 10 -4 22 -10 25 -6
4 -10 -13 -10 -44z"/>
<path d="M1769 949 c-16 -34 -28 -63 -26 -65 2 -2 18 9 35 26 30 29 43 34 69
31 6 -1 15 3 18 9 8 13 -32 60 -52 60 -7 0 -27 -27 -44 -61z m56 22 c3 -6 -4
-15 -15 -21 -22 -12 -23 -10 -14 14 7 18 20 21 29 7z"/>
<path d="M976 919 c-32 -38 -33 -53 -2 -45 29 7 82 -10 90 -30 3 -8 13 -14 22
-14 13 0 11 8 -11 48 -26 45 -51 72 -66 72 -4 0 -19 -14 -33 -31z m64 -30 c0
-11 -11 -11 -29 0 -7 5 -10 14 -6 20 5 9 10 9 21 0 8 -6 14 -15 14 -20z"/>
<path d="M1617 933 c-4 -3 -7 -26 -7 -50 0 -42 1 -43 28 -37 36 9 92 32 92 38
0 3 -18 -1 -39 -9 -46 -16 -51 -13 -51 32 0 31 -9 41 -23 26z"/>
<path d="M1132 898 c-7 -7 -12 -19 -12 -28 0 -44 96 -77 135 -46 19 15 17 16
-30 10 -41 -5 -54 -3 -65 11 -10 12 -11 21 -3 33 11 17 32 19 88 7 l30 -6 -25
15 c-30 18 -101 21 -118 4z"/>
<path d="M1397 863 c-36 -48 -33 -64 6 -45 37 17 70 22 83 11 7 -6 20 -9 28
-7 12 2 8 12 -17 45 -18 23 -39 42 -49 43 -9 0 -32 -21 -51 -47z m63 2 c11
-13 8 -15 -15 -15 -23 0 -26 2 -15 15 7 8 14 15 15 15 1 0 8 -7 15 -15z"/>
<path d="M1300 855 c0 -38 3 -45 20 -45 17 0 20 7 20 45 0 38 -3 45 -20 45
-17 0 -20 -7 -20 -45z"/>
<path d="M780 845 c0 -36 5 -47 28 -63 41 -29 72 -44 72 -34 0 4 -16 16 -35
25 -32 15 -35 20 -35 61 0 30 -5 46 -15 50 -12 4 -15 -4 -15 -39z"/>
<path d="M1813 848 c-42 -21 -43 -23 -43 -70 l0 -48 38 19 c49 25 72 52 75 87
3 36 -16 39 -70 12z m47 -21 c0 -22 -17 -44 -47 -61 -9 -5 -13 3 -13 27 0 25
6 37 23 45 33 16 37 14 37 -11z"/>
<path d="M902 774 c2 -28 8 -49 16 -52 10 -3 12 8 10 44 -2 28 -8 49 -16 52
-10 3 -12 -8 -10 -44z"/>
<path d="M960 751 l0 -48 56 -16 c53 -15 84 -14 84 3 0 5 -5 12 -10 15 -6 4
-8 15 -5 24 3 10 0 23 -7 28 -11 8 -103 43 -115 43 -2 0 -3 -22 -3 -49z m95
-2 c5 -5 1 -9 -12 -9 -29 0 -53 10 -53 22 0 12 50 2 65 -13z m-9 -33 c10 -8
16 -17 12 -21 -9 -10 -61 9 -66 23 -5 17 30 15 54 -2z"/>
<path d="M1665 782 c-17 -11 -67 -103 -61 -109 3 -4 17 4 31 17 17 16 39 25
68 26 23 1 43 2 45 3 2 1 -9 17 -24 36 -26 35 -40 41 -59 27z m25 -43 c0 -5
-7 -9 -15 -9 -15 0 -20 12 -9 23 8 8 24 -1 24 -14z"/>
<path d="M1538 756 c-31 -6 -60 -15 -65 -20 -4 -5 4 -7 20 -4 26 5 27 3 27
-33 0 -57 28 -53 32 4 2 35 7 43 26 45 12 2 22 8 22 13 0 5 -1 8 -2 8 -2 -1
-29 -7 -60 -13z"/>
<path d="M1130 705 c0 -49 0 -49 88 -58 23 -3 42 -1 42 4 0 5 -15 9 -34 9 -75
0 -92 29 -18 31 l47 1 -42 11 c-62 18 -63 27 -2 28 l54 2 -45 8 c-88 15 -90
14 -90 -36z"/>
<path d="M1300 690 c0 -38 4 -50 15 -50 8 0 15 9 15 20 0 27 30 26 64 -1 16
-12 33 -18 43 -14 14 5 12 9 -12 25 -22 15 -25 20 -12 20 23 0 34 29 16 41 -8
5 -40 9 -71 9 l-58 0 0 -50z m110 20 c0 -5 -11 -11 -25 -11 -14 -1 -30 -2 -37
-3 -6 -1 -13 5 -15 12 -3 8 8 12 36 12 23 0 41 -4 41 -10z"/>
<path d="M3500 951 c0 -34 4 -51 15 -55 10 -4 15 1 15 15 0 16 3 18 19 9 44
-23 85 -4 60 27 -11 13 -90 53 -105 53 -2 0 -4 -22 -4 -49z m66 5 c10 -8 16
-17 12 -21 -11 -11 -48 5 -48 21 0 18 11 18 36 0z"/>
<path d="M4298 968 c-14 -12 -68 -100 -68 -112 0 -13 28 -5 34 9 7 21 68 46
81 35 6 -5 16 -5 23 -1 9 5 5 17 -15 44 -32 41 -33 42 -55 25z m22 -44 c0 -8
-7 -14 -15 -14 -17 0 -18 2 -9 24 7 18 24 12 24 -10z"/>
<path d="M3662 929 c-47 -17 -14 -82 49 -99 62 -17 108 7 94 50 -11 36 -98 65
-143 49z m95 -31 c18 -14 16 -47 -2 -54 -43 -17 -100 31 -74 62 13 16 53 12
76 -8z"/>
<path d="M4090 870 c0 -45 2 -50 23 -49 12 0 40 7 62 15 l40 14 -42 -5 -43 -5
0 40 c0 33 -3 40 -20 40 -17 0 -20 -7 -20 -50z"/>
<path d="M3840 860 c0 -38 4 -50 15 -50 8 0 15 9 15 20 0 12 7 20 16 20 9 0
27 -9 41 -20 14 -11 35 -20 47 -20 21 1 21 1 -1 19 -27 22 -29 31 -8 31 20 0
19 36 -1 44 -9 3 -40 6 -70 6 l-54 0 0 -50z m110 21 c0 -14 -37 -23 -60 -16
-34 11 -22 25 20 25 22 0 40 -4 40 -9z"/>
<path d="M3407 863 c-30 -30 37 -123 88 -123 22 0 25 3 16 14 -7 8 -20 12 -30
9 -12 -3 -26 5 -40 23 -39 49 -12 84 30 40 25 -27 39 -33 39 -16 0 11 -70 60
-86 60 -6 0 -14 -3 -17 -7z"/>
<path d="M4369 785 c-34 -75 -34 -76 -14 -69 8 4 15 12 15 20 0 17 59 49 83
45 9 -1 17 4 17 12 0 17 -41 57 -59 57 -7 0 -25 -29 -42 -65z m51 21 c0 -15
-18 -31 -26 -23 -7 7 7 37 17 37 5 0 9 -6 9 -14z"/>
<path d="M3550 762 c0 -44 18 -65 68 -83 44 -15 64 2 60 49 -4 50 -24 51 -32
2 -7 -42 -14 -47 -47 -30 -14 8 -19 21 -19 55 0 33 -4 45 -15 45 -11 0 -15
-11 -15 -38z"/>
<path d="M4235 776 c-40 -11 -40 -12 -43 -65 -2 -40 0 -52 10 -49 7 3 14 15
16 27 5 29 26 36 53 18 21 -15 49 -13 49 3 0 5 -9 12 -21 15 l-21 7 21 15 c12
8 21 21 21 29 0 17 -29 17 -85 0z m36 -26 c-27 -23 -51 -26 -51 -6 0 15 19 23
55 25 19 0 18 -1 -4 -19z"/>
<path d="M3720 701 l0 -50 55 -6 c68 -9 86 1 21 10 l-46 7 0 44 c0 32 -4 44
-15 44 -11 0 -15 -12 -15 -49z"/>
<path d="M4110 706 c0 -39 -3 -45 -25 -50 -36 -9 -45 0 -45 45 0 29 -4 39 -16
39 -12 0 -14 -10 -12 -47 l3 -48 45 -3 c58 -4 80 13 87 66 5 38 4 42 -16 42
-18 0 -21 -6 -21 -44z"/>
<path d="M3840 731 c0 -6 11 -11 25 -11 23 0 25 -4 25 -45 0 -38 3 -45 20 -45
17 0 20 7 20 44 0 41 2 45 28 49 19 3 16 4 -14 6 -23 0 -56 4 -73 7 -20 4 -31
3 -31 -5z"/>
<path d="M723 2705 c-75 -16 -117 -40 -132 -72 -28 -60 46 -166 160 -232 30
-17 57 -31 62 -31 4 0 7 79 7 175 0 199 10 183 -97 160z m67 -155 c0 -77 -4
-130 -10 -130 -16 0 -114 85 -137 120 -26 38 -30 82 -8 100 19 16 93 38 128
39 l27 1 0 -130z"/>
<path d="M4420 2546 c0 -97 2 -176 5 -176 37 0 171 104 201 156 62 105 13 162
-163 189 l-43 7 0 -176z m159 106 c55 -26 55 -74 -1 -137 -28 -33 -109 -95
-122 -95 -3 0 -6 59 -6 131 l0 132 47 -7 c26 -3 63 -14 82 -24z"/>
<path d="M570 2362 l0 -189 28 -39 c41 -56 103 -109 164 -140 90 -45 133 -81
159 -128 13 -25 27 -46 32 -46 19 0 99 87 122 133 70 141 -11 291 -190 351
-122 40 -181 82 -269 190 l-46 57 0 -189z m198 -46 c26 -13 77 -33 113 -45
189 -62 245 -236 119 -370 l-32 -34 -43 50 c-28 32 -70 64 -117 88 -94 49
-132 79 -174 133 l-34 45 0 135 0 134 61 -56 c33 -31 82 -67 107 -80z"/>
<path d="M4662 2544 c-4 -22 -137 -158 -181 -185 -24 -16 -78 -40 -121 -54
-144 -48 -220 -134 -220 -250 0 -64 22 -115 77 -176 58 -65 67 -66 97 -14 28
47 76 85 165 129 60 31 141 102 171 151 19 31 20 47 17 222 -1 103 -3 183 -5
177z m-49 -396 c-36 -53 -80 -88 -175 -139 -52 -28 -96 -61 -125 -94 l-44 -50
-30 35 c-128 148 -73 307 129 374 93 31 182 85 232 142 l35 39 3 -134 c3 -132
2 -135 -25 -173z"/>
<path d="M1099 1947 c-31 -59 -131 -152 -234 -217 -117 -73 -190 -141 -211
-196 -25 -66 -16 -182 21 -254 15 -30 36 -67 47 -82 21 -30 48 -37 48 -13 0
28 38 91 75 124 20 17 68 47 108 67 95 48 150 94 176 147 19 40 21 61 21 249
0 174 -2 207 -15 212 -10 4 -22 -8 -36 -37z m11 -227 l0 -180 -40 -44 c-24
-26 -77 -63 -130 -91 -98 -52 -150 -96 -179 -153 l-19 -36 -33 64 c-30 59 -34
73 -34 152 0 80 2 89 30 130 21 30 70 70 160 129 79 53 152 111 185 147 30 33
56 60 58 61 1 0 2 -80 2 -179z"/>
<path d="M4103 1983 c-10 -4 -13 -55 -13 -211 0 -179 3 -213 19 -247 24 -53
72 -94 173 -147 98 -51 162 -110 179 -167 7 -23 18 -41 26 -41 17 0 68 79 93
147 27 72 27 173 0 228 -26 53 -88 111 -180 168 -103 63 -201 146 -236 200
-16 24 -33 52 -39 60 -5 8 -16 13 -22 10z m85 -145 c33 -35 118 -101 188 -148
168 -111 189 -140 189 -253 0 -72 -4 -90 -33 -152 l-34 -70 -18 36 c-27 51
-99 113 -179 154 -84 42 -149 97 -168 142 -9 23 -13 81 -13 193 0 88 2 160 4
160 2 0 31 -28 64 -62z"/>
</g>
</svg>
